<?xml version="1.0" standalone="no"?>
<!DOCTYPE svg PUBLIC "-//W3C//DTD SVG 20010904//EN"
 "http://www.w3.org/TR/2001/REC-SVG-20010904/DTD/svg10.dtd">
<svg version="1.0" xmlns="http://www.w3.org/2000/svg"
 width="800.000000pt" height="600.000000pt" viewBox="0 0 800.000000 600.000000"
 preserveAspectRatio="xMidYMid meet">

<g transform="translate(0.000000,600.000000) scale(0.100000,-0.100000)"
fill="#000000" stroke="none">
<path d="M1250 2885 l0 -935 2905 0 2905 0 0 935 0 935 -2905 0 -2905 0 0
-935z m2062 547 c3 -10 0 -19 -6 -20 -6 0 -76 -14 -156 -30 -80 -16 -162 -33
-183 -36 -48 -9 -70 -40 -58 -81 l9 -30 1 32 c1 17 6 35 12 38 16 11 379 82
379 75 0 -3 -4 -10 -9 -15 -5 -6 -17 -35 -27 -65 -25 -79 -22 -169 9 -259 15
-41 24 -77 22 -80 -3 -2 -5 0 -5 6 0 6 -9 9 -20 6 -19 -5 -220 72 -327 125
l-53 26 -127 -22 c-592 -102 -695 -121 -700 -126 -24 -23 33 -17 382 39 318
52 414 66 444 67 40 0 411 -142 411 -157 0 -32 -152 6 -347 86 -44 18 -63 1
-62 -55 l1 -41 11 43 c5 23 14 42 19 42 5 0 34 -11 66 -23 31 -13 110 -44 175
-68 116 -43 118 -45 113 -71 -3 -15 1 -43 9 -62 8 -20 15 -37 15 -39 0 -14
-81 1 -225 40 -156 43 -179 47 -285 47 -98 0 -770 -63 -853 -80 -28 -6 -33
-29 -6 -29 43 1 247 19 399 36 330 37 508 49 563 39 99 -19 402 -93 411 -101
39 -35 -191 -5 -351 46 -70 22 -81 23 -215 14 -78 -5 -207 -15 -287 -23 -80
-8 -207 -20 -281 -27 -74 -6 -153 -15 -175 -19 -35 -7 -30 -8 35 -9 85 -1 328
19 599 50 101 11 190 18 198 15 11 -5 14 -17 9 -54 -4 -31 -1 -55 8 -71 12
-22 13 -20 19 39 3 34 8 64 11 68 4 3 73 -11 154 -32 81 -20 158 -39 172 -40
77 -10 101 -19 95 -35 -14 -33 -17 -90 -7 -119 l10 -29 -56 2 c-57 2 -304 44
-383 65 -29 8 -204 11 -573 8 l-531 -3 -3 53 c-3 48 0 56 30 86 22 22 47 35
76 40 40 6 53 18 33 30 -13 9 -23 72 -16 109 10 54 46 84 107 92 29 4 56 9 60
11 4 3 0 21 -9 41 -12 31 -13 44 -3 78 13 44 46 85 68 85 8 0 69 16 136 35 67
19 175 50 241 69 66 18 163 46 215 61 52 15 107 29 122 31 14 2 52 12 85 23
32 11 76 22 98 25 22 3 87 14 145 25 137 25 156 26 162 3z m465 -218 c53 -39
63 -75 63 -224 0 -149 -10 -185 -63 -224 -41 -30 -168 -35 -217 -8 -65 36 -75
68 -75 232 0 164 10 196 75 232 49 27 176 22 217 -8z m205 -179 c2 -122 7
-198 14 -205 6 -6 27 -13 46 -16 28 -5 40 -2 57 15 20 20 21 31 21 211 l0 190
56 0 56 0 -4 -197 c-4 -231 -9 -250 -82 -278 -62 -24 -174 -18 -213 11 -49 37
-53 54 -53 267 l0 197 49 0 50 0 3 -195z m588 177 c40 -20 60 -53 60 -100 0
-40 -23 -87 -46 -96 -15 -6 -14 -10 8 -34 22 -23 27 -40 32 -111 4 -46 11 -92
17 -102 9 -18 5 -19 -49 -19 -69 0 -72 4 -72 106 0 79 -12 94 -83 101 l-57 6
0 -107 0 -106 -50 0 -50 0 0 240 0 240 128 0 c101 0 134 -4 162 -18z m810 -10
c48 -35 55 -65 55 -222 0 -159 -7 -186 -58 -224 -22 -16 -43 -21 -92 -21 -111
0 -143 40 -152 192 -11 182 17 270 91 293 44 13 126 4 156 -18z m330 0 c48
-35 55 -65 55 -222 0 -159 -7 -186 -58 -224 -22 -16 -43 -21 -92 -21 -111 0
-143 40 -152 192 -11 182 17 270 91 293 44 13 126 4 156 -18z m-653 -14 c23
-24 27 -36 27 -84 0 -48 -3 -60 -26 -79 l-26 -23 23 -10 c54 -25 57 -157 5
-215 -28 -32 -30 -32 -134 -35 l-106 -4 0 242 0 242 105 -4 c99 -3 106 -5 132
-30z m843 -75 l0 -108 57 108 57 107 48 0 47 0 -56 -97 c-31 -54 -56 -103 -56
-109 0 -7 25 -68 56 -137 32 -70 57 -129 57 -132 0 -3 -21 -5 -46 -3 l-45 3
-42 93 -41 93 -18 -23 c-13 -17 -18 -42 -18 -95 l0 -73 -40 0 -40 0 0 240 0
240 40 0 40 0 0 -107z m480 -78 l0 -55 50 0 c49 0 50 -1 50 -30 0 -29 -1 -30
-50 -30 l-50 0 0 -50 c0 -49 -1 -50 -30 -50 -29 0 -30 1 -30 50 l0 50 -50 0
c-49 0 -50 1 -50 30 0 29 1 30 50 30 l50 0 0 55 c0 54 0 55 30 55 30 0 30 -1
30 -55z m-2792 -437 c29 -29 7 -78 -35 -78 -20 0 -23 -5 -23 -35 0 -19 -4 -35
-10 -35 -6 0 -10 33 -10 80 l0 80 33 0 c18 0 38 -5 45 -12z m106 -40 c26 -90
29 -108 18 -108 -5 0 -13 11 -16 25 -5 18 -13 25 -30 25 -17 0 -26 -7 -30 -25
-5 -21 -26 -37 -26 -19 0 28 46 154 56 154 8 0 20 -23 28 -52z m134 19 c4 -35
-13 -57 -44 -57 -21 0 -24 -5 -24 -35 0 -19 -4 -35 -10 -35 -6 0 -10 34 -10
81 l0 80 43 -3 c38 -3 42 -6 45 -31z m112 23 c0 -5 -16 -10 -35 -10 -31 0 -35
-3 -35 -25 0 -22 4 -25 35 -25 19 0 35 -4 35 -10 0 -5 -16 -10 -35 -10 -31 0
-35 -3 -35 -25 0 -22 4 -25 40 -25 22 0 40 -4 40 -10 0 -5 -22 -10 -50 -10
l-50 0 0 80 0 80 45 0 c25 0 45 -4 45 -10z m118 -2 c15 -15 16 -58 1 -58 -8 0
-8 -4 -1 -12 16 -21 20 -78 6 -78 -7 0 -14 15 -16 33 -2 27 -8 33 -30 35 -26
3 -28 1 -28 -32 0 -20 -4 -36 -10 -36 -6 0 -10 33 -10 80 l0 80 38 0 c21 0 43
-5 50 -12z m197 -10 c2 -13 4 -36 4 -53 0 -16 1 -39 1 -49 1 -25 -17 -36 -57
-36 l-33 0 0 80 0 80 40 0 c33 0 40 -4 45 -22z m113 10 c16 -16 16 -120 0
-136 -19 -19 -66 -15 -78 7 -5 11 -10 38 -10 61 0 23 5 50 10 61 12 22 59 26
78 7z m114 -5 c23 -20 24 -90 2 -121 -17 -25 -56 -29 -74 -7 -6 8 -14 32 -17
54 -10 73 43 116 89 74z m58 -19 l0 -37 23 33 c12 19 29 36 37 38 12 4 11 0
-3 -19 -30 -41 -30 -49 -8 -89 24 -43 25 -50 11 -50 -6 0 -18 16 -27 35 -9 19
-20 35 -25 35 -4 0 -8 -16 -8 -35 0 -24 -5 -35 -15 -35 -12 0 -15 16 -15 80 0
64 3 80 15 80 11 0 15 -11 15 -36z m174 14 c15 -24 -1 -36 -18 -13 -8 11 -20
16 -30 12 -27 -11 -18 -34 22 -54 42 -20 51 -43 27 -67 -31 -31 -85 -14 -85
26 0 25 16 23 23 -3 7 -26 41 -22 45 6 2 16 -6 24 -33 33 -37 14 -48 45 -23
70 17 17 58 11 72 -10z m184 -58 c13 -54 16 -80 8 -77 -6 2 -12 14 -14 26 -5
31 -56 26 -60 -6 -2 -13 -10 -23 -17 -23 -11 0 -10 13 6 68 26 90 26 92 42 92
10 0 21 -28 35 -80z m89 23 l18 -58 3 58 c5 86 22 68 22 -23 0 -100 -18 -108
-48 -22 l-20 57 -1 -57 c-1 -45 -4 -58 -16 -58 -12 0 -15 16 -15 80 0 72 2 80
19 80 14 0 24 -14 38 -57z m161 45 c15 -15 16 -102 2 -129 -8 -14 -21 -19 -50
-19 l-40 0 0 80 0 80 38 0 c21 0 43 -5 50 -12z m202 2 c0 -5 -16 -10 -35 -10
-31 0 -35 -3 -35 -25 0 -22 4 -25 35 -25 19 0 35 -4 35 -10 0 -5 -16 -10 -35
-10 -31 0 -35 -3 -35 -25 0 -22 4 -25 35 -25 19 0 35 -4 35 -10 0 -5 -20 -10
-45 -10 l-45 0 0 80 0 80 45 0 c25 0 45 -4 45 -10z m184 -12 c8 -13 8 -23 -1
-38 -8 -12 -9 -21 -3 -25 14 -9 12 -49 -2 -63 -7 -7 -27 -12 -45 -12 l-33 0 0
81 0 80 36 -3 c22 -2 42 -10 48 -20z m114 10 c7 -7 12 -37 12 -68 0 -63 -11
-80 -52 -80 -34 0 -48 24 -48 80 0 23 5 50 10 61 12 22 59 26 78 7z m113 -5
c8 -9 14 -37 14 -63 0 -26 -6 -54 -14 -63 -19 -24 -57 -21 -75 5 -21 29 -21
102 0 122 20 21 58 20 75 -1z m59 -19 l0 -37 23 33 c12 19 29 36 37 38 12 4
11 0 -3 -19 -30 -41 -30 -49 -8 -89 24 -43 25 -50 11 -50 -6 0 -18 16 -27 35
-9 19 -20 35 -25 35 -4 0 -8 -16 -8 -35 0 -24 -5 -35 -15 -35 -12 0 -15 16
-15 80 0 64 3 80 15 80 11 0 15 -11 15 -36z m170 21 c6 -8 9 -19 5 -25 -5 -8
-11 -5 -20 6 -7 10 -19 15 -29 11 -27 -11 -18 -36 19 -51 26 -11 35 -21 35
-38 0 -51 -58 -66 -86 -23 -22 33 -8 47 15 16 21 -27 51 -23 51 7 0 13 -11 22
-32 28 -26 8 -34 16 -36 38 -2 16 2 32 10 37 20 13 54 10 68 -6z m-560 -75 c0
-5 -13 -10 -30 -10 -16 0 -30 5 -30 10 0 6 14 10 30 10 17 0 30 -4 30 -10z"/>
<path d="M2921 3174 c0 -11 3 -14 6 -6 3 7 2 16 -1 19 -3 4 -6 -2 -5 -13z"/>
<path d="M1910 2670 c-12 -8 -9 -10 12 -10 15 0 30 5 33 10 8 13 -25 13 -45 0z"/>
<path d="M3619 3151 c-23 -18 -24 -26 -27 -155 -3 -134 -3 -136 22 -161 30
-30 69 -32 96 -5 18 18 20 33 20 158 0 125 -2 140 -20 160 -26 27 -60 28 -91
3z"/>
<path d="M4380 3095 l0 -65 50 0 c59 0 90 24 90 69 0 45 -23 61 -86 61 l-54 0
0 -65z"/>
<path d="M5239 3143 c-10 -11 -15 -56 -17 -155 -4 -163 4 -188 63 -188 57 0
65 23 65 180 0 156 -8 180 -64 180 -19 0 -40 -7 -47 -17z"/>
<path d="M5569 3143 c-10 -11 -15 -56 -17 -155 -4 -163 4 -188 63 -188 57 0
65 23 65 180 0 156 -8 180 -64 180 -19 0 -40 -7 -47 -17z"/>
<path d="M4910 3091 l0 -61 34 0 c44 0 58 19 54 72 -3 43 -3 43 -45 46 l-43 3
0 -60z"/>
<path d="M4910 2885 l0 -75 40 0 c47 0 60 18 60 82 0 54 -13 68 -62 68 l-38 0
0 -75z"/>
<path d="M3530 2565 c0 -22 4 -26 23 -23 14 2 22 10 22 23 0 13 -8 21 -22 23
-19 3 -23 -1 -23 -23z"/>
<path d="M3661 2568 c-1 -9 -4 -23 -7 -32 -4 -11 -1 -16 10 -16 17 0 19 14 6
45 -7 16 -9 17 -9 3z"/>
<path d="M3760 2565 c0 -22 4 -26 23 -23 14 2 22 10 22 23 0 13 -8 21 -22 23
-19 3 -23 -1 -23 -23z"/>
<path d="M3990 2565 c0 -23 4 -26 28 -23 19 2 27 9 27 23 0 14 -8 21 -27 23
-24 3 -28 0 -28 -23z"/>
<path d="M4190 2565 c0 -22 4 -26 23 -23 14 2 22 10 22 23 0 13 -8 21 -22 23
-19 3 -23 -1 -23 -23z"/>
<path d="M4190 2496 c0 -21 5 -26 26 -26 21 0 25 4 22 23 -2 14 -11 23 -25 25
-19 3 -23 -1 -23 -22z"/>
<path d="M4311 2576 c-7 -8 -11 -34 -9 -58 3 -38 6 -43 28 -43 22 0 25 5 28
43 3 40 -10 72 -28 72 -4 0 -13 -6 -19 -14z"/>
<path d="M4421 2571 c-15 -27 -14 -63 3 -86 17 -24 43 -14 52 21 14 57 -31
110 -55 65z"/>
<path d="M4857 2563 c-12 -12 -7 -43 7 -43 9 0 12 8 8 25 -5 27 -6 28 -15 18z"/>
<path d="M5080 2530 c0 -62 6 -69 44 -54 12 4 16 20 16 54 0 34 -4 50 -16 54
-38 15 -44 8 -44 -54z"/>
<path d="M5470 2565 c0 -22 4 -26 23 -23 14 2 22 10 22 23 0 13 -8 21 -22 23
-19 3 -23 -1 -23 -23z"/>
<path d="M5470 2495 c0 -22 4 -26 23 -23 14 2 22 10 22 23 0 13 -8 21 -22 23
-19 3 -23 -1 -23 -23z"/>
<path d="M5591 2576 c-7 -8 -11 -34 -9 -58 3 -38 6 -43 28 -43 22 0 25 5 28
43 3 40 -10 72 -28 72 -4 0 -13 -6 -19 -14z"/>
<path d="M5702 2578 c-17 -17 -15 -83 3 -98 30 -25 46 -4 43 52 -3 55 -20 72
-46 46z"/>
</g>
</svg>
